<svg xmlns="http://www.w3.org/2000/svg" xmlns:xlink="http://www.w3.org/1999/xlink" width="1920" zoomAndPan="magnify" viewBox="0 0 1440 809.999993" height="1080" preserveAspectRatio="xMidYMid meet" version="1.0"><defs><clipPath id="156f0551a4"><path d="M 0 0 L 704.425781 0 L 704.425781 810 L 0 810 Z M 0 0 " clip-rule="nonzero"/></clipPath><clipPath id="2140255ebf"><path d="M 0 0 L 704.425781 0 L 704.425781 809 L 0 809 Z M 0 0 " clip-rule="nonzero"/></clipPath><clipPath id="2f00e6abbd"><rect x="0" width="705" y="0" height="810"/></clipPath><clipPath id="dbda7999a2"><path d="M 704.425781 0 L 1440 0 L 1440 810 L 704.425781 810 Z M 704.425781 0 " clip-rule="nonzero"/></clipPath><clipPath id="21f703b5f2"><path d="M 0.425781 0 L 736 0 L 736 810 L 0.425781 810 Z M 0.425781 0 " clip-rule="nonzero"/></clipPath><clipPath id="fe3ee10170"><rect x="0" width="736" y="0" height="810"/></clipPath><clipPath id="4a98831e78"><path d="M 227.746094 328.617188 L 420.496094 328.617188 L 420.496094 527.367188 L 227.746094 527.367188 Z M 227.746094 328.617188 " clip-rule="nonzero"/></clipPath><clipPath id="ee132ed30e"><path d="M 975.71875 328.617188 L 1168.46875 328.617188 L 1168.46875 527.367188 L 975.71875 527.367188 Z M 975.71875 328.617188 " clip-rule="nonzero"/></clipPath></defs><g clip-path="url(#156f0551a4)"><g transform="matrix(1, 0, 0, 1, 0, 0.000000000000039746)"><g clip-path="url(#2f00e6abbd)"><g clip-path="url(#2140255ebf)"><path fill="#01a79e" d="M 0 0 L 704.425781 0 L 704.425781 808.988281 L 0 808.988281 Z M 0 0 " fill-opacity="1" fill-rule="nonzero"/></g></g></g></g><g clip-path="url(#dbda7999a2)"><g transform="matrix(1, 0, 0, 1, 704, 0.000000000000039746)"><g clip-path="url(#fe3ee10170)"><g clip-path="url(#21f703b5f2)"><path fill="#1b43ad" d="M 0.425781 0 L 736 0 L 736 810.28125 L 0.425781 810.28125 Z M 0.425781 0 " fill-opacity="1" fill-rule="nonzero"/></g></g></g></g><g clip-path="url(#4a98831e78)"><path fill="#ffffff" d="M 418.90625 466.492188 C 418.246094 472.304688 414.71875 483 411.582031 488.8125 C 407.707031 496.019531 404.492188 500.476562 399.453125 505.667969 C 389.144531 516.328125 376.164062 523.070312 360.46875 525.898438 C 356.011719 526.710938 344 527.175781 344 526.558594 C 344 526.285156 344.660156 525.007812 345.472656 523.6875 C 346.285156 522.332031 347.953125 519.464844 349.191406 517.296875 C 350.394531 515.125 351.519531 513.265625 351.671875 513.148438 C 351.828125 513.070312 353.457031 512.761719 355.238281 512.527344 C 358.84375 512.0625 367.097656 509.933594 370.273438 508.691406 C 377.636719 505.785156 383.214844 502.066406 388.953125 496.292969 C 393.601562 491.605469 397.320312 486.527344 399.917969 481.296875 C 401.429688 478.273438 405.226562 467.460938 405.226562 466.183594 C 405.226562 465.757812 405.34375 465.253906 405.496094 465.136719 C 405.613281 464.980469 408.753906 464.867188 412.433594 464.867188 L 419.097656 464.867188 Z M 365.894531 329.507812 C 375.738281 331.792969 383.136719 334.699219 389.378906 338.730469 C 400.847656 346.132812 408.519531 354.773438 414.914062 367.601562 C 416.890625 371.554688 420.609375 381.433594 420.261719 381.746094 C 420.066406 381.898438 412.125 382.09375 409.023438 382.015625 L 406.078125 381.9375 L 405.34375 380.117188 C 403.675781 375.816406 400.113281 369.074219 397.824219 365.894531 C 394.570312 361.363281 389.222656 355.9375 384.960938 352.953125 C 383.101562 351.636719 379.378906 349.425781 376.628906 348.109375 C 371.976562 345.746094 370 345.125 362.601562 343.535156 C 361.050781 343.1875 348.804688 343.03125 317.921875 342.917969 L 275.410156 342.761719 L 276.226562 344.234375 C 276.691406 345.046875 278.085938 347.527344 279.363281 349.734375 C 280.640625 351.945312 282.191406 354.617188 282.773438 355.742188 C 283.394531 356.828125 286.378906 362.175781 289.476562 367.601562 L 295.058594 377.480469 L 308.195312 377.367188 C 321.871094 377.210938 331.019531 377.636719 335.4375 378.644531 C 347.914062 381.511719 358.066406 387.054688 366.667969 395.695312 C 368.800781 397.828125 371.707031 401.238281 373.140625 403.25 C 375.8125 406.972656 379.726562 414.257812 381.007812 417.78125 C 382.089844 420.726562 382.015625 420.6875 386.199219 420.535156 C 388.253906 420.457031 393.910156 420.535156 398.753906 420.726562 C 407.164062 421.039062 407.707031 421.039062 409.101562 420.300781 C 412.007812 418.828125 415.417969 419.527344 418.128906 422.160156 C 420.765625 424.679688 421.421875 427.859375 419.988281 430.957031 C 419.253906 432.625 416.96875 434.832031 415.417969 435.453125 C 413.710938 436.113281 410.574219 435.839844 408.519531 434.871094 C 406.582031 433.980469 406.464844 433.980469 395.691406 434.175781 L 384.804688 434.367188 L 384.53125 436.691406 C 384.417969 437.972656 384.300781 439.636719 384.300781 440.414062 C 384.300781 441.652344 383.332031 445.722656 381.433594 452.660156 C 380.617188 455.488281 377.636719 461.804688 377.171875 461.648438 C 376.976562 461.570312 376.433594 459.867188 375.96875 457.851562 C 375.503906 455.875 374.300781 450.875 373.332031 446.847656 C 372.363281 442.777344 371.203125 437.3125 370.738281 434.640625 C 369.457031 427.199219 368.527344 423.984375 366.242188 419.332031 C 363.800781 414.335938 360.390625 409.644531 356.128906 405.460938 C 349.308594 398.757812 342.914062 395.230469 333.148438 392.75 C 330.164062 391.976562 328.578125 391.898438 316.136719 391.742188 L 302.382812 391.550781 L 303 392.480469 C 303.503906 393.253906 305.828125 397.363281 310.90625 406.351562 C 311.796875 407.941406 313.695312 411.351562 315.128906 413.90625 C 318.152344 419.253906 322.027344 426.308594 323.964844 429.949219 C 325.167969 432.277344 326.171875 433.359375 326.171875 432.316406 C 326.171875 432.082031 326.949219 430.570312 327.878906 428.90625 C 328.769531 427.277344 329.972656 425.105469 330.515625 424.136719 C 331.054688 423.167969 332.605469 420.457031 333.925781 418.132812 C 335.28125 415.808594 336.753906 413.210938 337.257812 412.359375 C 338.960938 409.335938 338.960938 409.335938 340.707031 410.03125 C 341.519531 410.421875 343.183594 411.351562 344.347656 412.164062 C 345.550781 412.9375 347.523438 414.179688 348.765625 414.875 C 350.003906 415.574219 351.128906 416.386719 351.246094 416.660156 C 351.324219 416.890625 350.820312 418.054688 350.082031 419.21875 C 349.347656 420.339844 347.488281 423.441406 345.9375 426.113281 C 344.386719 428.789062 342.527344 431.925781 341.867188 433.089844 C 341.171875 434.253906 339.582031 436.964844 338.378906 439.097656 C 337.140625 441.226562 334.195312 446.265625 331.792969 450.335938 C 329.390625 454.363281 327.140625 458.238281 326.792969 458.9375 C 325.980469 460.5625 325.398438 460.875 324.855469 459.984375 C 324.234375 458.9375 322.648438 456.148438 316.214844 444.714844 C 299.824219 415.652344 291.105469 400.152344 288.238281 394.921875 C 286.453125 391.703125 284.089844 387.441406 282.964844 385.425781 C 281.84375 383.410156 278.703125 377.714844 275.992188 372.832031 C 273.277344 367.910156 269.015625 360.355469 266.496094 355.976562 C 264.015625 351.597656 261.34375 346.871094 260.53125 345.398438 L 259.09375 342.800781 L 241.695312 342.800781 L 241.695312 377.289062 L 243.167969 377.328125 C 243.945312 377.367188 249.253906 377.40625 254.949219 377.445312 C 260.644531 377.484375 265.371094 377.597656 265.449219 377.714844 C 265.527344 377.792969 266.613281 379.769531 267.851562 382.132812 C 269.09375 384.457031 270.683594 387.402344 271.417969 388.644531 C 272.117188 389.882812 272.695312 391.046875 272.695312 391.277344 C 272.695312 391.511719 267.15625 391.625 257.234375 391.550781 L 241.773438 391.433594 L 241.617188 392.59375 C 241.542969 393.214844 241.542969 399.570312 241.617188 406.625 L 241.734375 419.527344 L 276.417969 419.527344 L 277.347656 421.15625 C 277.851562 422.085938 279.945312 425.609375 282.074219 429.019531 C 286.492188 436.230469 295.328125 450.839844 312.222656 479.011719 C 318.886719 490.09375 324.933594 500.089844 325.667969 501.214844 C 327.257812 503.65625 326.832031 503.964844 330.4375 497.609375 C 331.753906 495.246094 332.953125 493.152344 333.148438 492.960938 C 333.304688 492.726562 334 491.527344 334.699219 490.246094 C 335.859375 488.078125 339.078125 482.574219 347.097656 468.933594 C 348.882812 465.949219 350.742188 462.734375 351.246094 461.765625 C 354.847656 455.253906 360.078125 446.535156 360.46875 446.5 C 360.660156 446.460938 360.972656 447.273438 361.125 448.28125 C 361.242188 449.328125 361.707031 451.226562 362.171875 452.542969 C 363.414062 456.496094 365.039062 463.394531 365.078125 465.097656 C 365.117188 466.339844 364.769531 467.191406 363.335938 469.359375 C 362.367188 470.832031 361.125 472.808594 360.585938 473.777344 C 359.730469 475.367188 352.328125 488.078125 347.757812 495.867188 C 344.890625 500.75 337.527344 513.5 335.746094 516.597656 C 334.929688 518.070312 333.808594 519.929688 333.34375 520.667969 C 332.839844 521.402344 331.832031 523.148438 331.132812 524.542969 L 329.816406 527.0625 L 227.941406 527.0625 L 227.824219 427.976562 L 227.746094 328.890625 L 228.792969 328.734375 C 229.414062 328.65625 259.714844 328.617188 296.140625 328.617188 C 361.980469 328.695312 362.445312 328.695312 365.894531 329.507812 Z M 241.503906 434.328125 C 241.386719 434.601562 241.386719 436.925781 241.464844 439.484375 C 241.542969 442.039062 241.621094 448.628906 241.660156 454.132812 L 241.699219 464.128906 L 259.640625 464.011719 C 269.480469 463.972656 279.519531 463.820312 281.882812 463.703125 L 286.261719 463.507812 L 277.890625 449.945312 C 273.28125 442.46875 269.171875 435.800781 268.746094 435.105469 L 267.972656 433.863281 L 254.835938 433.863281 C 244.644531 433.863281 241.621094 433.980469 241.503906 434.328125 Z M 241.660156 477.925781 C 241.621094 478.117188 241.621094 484.667969 241.660156 492.570312 C 241.660156 500.4375 241.699219 508.34375 241.699219 510.085938 L 241.699219 513.304688 L 278.667969 513.304688 C 299.011719 513.304688 315.75 513.148438 315.867188 512.992188 C 315.984375 512.800781 312.882812 507.453125 309.046875 501.058594 C 305.210938 494.703125 300.523438 486.835938 298.699219 483.660156 L 295.328125 477.847656 L 268.511719 477.730469 C 253.75 477.691406 241.660156 477.769531 241.660156 477.925781 Z M 241.660156 477.925781 " fill-opacity="1" fill-rule="nonzero"/></g><g clip-path="url(#ee132ed30e)"><path fill="#ffffff" d="M 1166.875 466.492188 C 1166.214844 472.304688 1162.691406 483 1159.550781 488.8125 C 1155.675781 496.019531 1152.460938 500.476562 1147.421875 505.667969 C 1137.113281 516.328125 1124.132812 523.070312 1108.441406 525.898438 C 1103.984375 526.710938 1091.96875 527.175781 1091.96875 526.558594 C 1091.96875 526.285156 1092.628906 525.007812 1093.441406 523.6875 C 1094.257812 522.332031 1095.921875 519.464844 1097.164062 517.296875 C 1098.363281 515.125 1099.488281 513.265625 1099.644531 513.148438 C 1099.796875 513.070312 1101.425781 512.761719 1103.207031 512.527344 C 1106.8125 512.0625 1115.066406 509.933594 1118.242188 508.691406 C 1125.605469 505.785156 1131.1875 502.066406 1136.921875 496.292969 C 1141.570312 491.605469 1145.292969 486.527344 1147.886719 481.296875 C 1149.398438 478.273438 1153.195312 467.460938 1153.195312 466.183594 C 1153.195312 465.757812 1153.3125 465.253906 1153.46875 465.136719 C 1153.585938 464.980469 1156.722656 464.867188 1160.40625 464.867188 L 1167.070312 464.867188 Z M 1113.863281 329.507812 C 1123.707031 331.792969 1131.109375 334.699219 1137.347656 338.730469 C 1148.816406 346.132812 1156.492188 354.773438 1162.882812 367.601562 C 1164.859375 371.554688 1168.582031 381.433594 1168.230469 381.746094 C 1168.039062 381.898438 1160.09375 382.09375 1156.992188 382.015625 L 1154.046875 381.9375 L 1153.3125 380.117188 C 1151.644531 375.816406 1148.082031 369.074219 1145.792969 365.894531 C 1142.539062 361.363281 1137.191406 355.9375 1132.929688 352.953125 C 1131.070312 351.636719 1127.347656 349.425781 1124.597656 348.109375 C 1119.949219 345.746094 1117.972656 345.125 1110.570312 343.535156 C 1109.019531 343.1875 1096.773438 343.03125 1065.890625 342.917969 L 1023.382812 342.761719 L 1024.195312 344.234375 C 1024.660156 345.046875 1026.054688 347.527344 1027.332031 349.734375 C 1028.613281 351.945312 1030.160156 354.617188 1030.742188 355.742188 C 1031.363281 356.828125 1034.347656 362.175781 1037.445312 367.601562 L 1043.027344 377.480469 L 1056.164062 377.367188 C 1069.84375 377.210938 1078.988281 377.636719 1083.40625 378.644531 C 1095.882812 381.511719 1106.035156 387.054688 1114.640625 395.695312 C 1116.769531 397.828125 1119.675781 401.238281 1121.109375 403.25 C 1123.785156 406.972656 1127.699219 414.257812 1128.976562 417.78125 C 1130.0625 420.726562 1129.984375 420.6875 1134.167969 420.535156 C 1136.222656 420.457031 1141.878906 420.535156 1146.722656 420.726562 C 1155.132812 421.039062 1155.675781 421.039062 1157.070312 420.300781 C 1159.976562 418.828125 1163.386719 419.527344 1166.101562 422.160156 C 1168.734375 424.679688 1169.394531 427.859375 1167.960938 430.957031 C 1167.222656 432.625 1164.9375 434.832031 1163.386719 435.453125 C 1161.683594 436.113281 1158.542969 435.839844 1156.488281 434.871094 C 1154.550781 433.980469 1154.4375 433.980469 1143.664062 434.175781 L 1132.773438 434.367188 L 1132.503906 436.691406 C 1132.386719 437.972656 1132.269531 439.636719 1132.269531 440.414062 C 1132.269531 441.652344 1131.300781 445.722656 1129.402344 452.660156 C 1128.589844 455.488281 1125.605469 461.804688 1125.140625 461.648438 C 1124.945312 461.570312 1124.402344 459.867188 1123.9375 457.851562 C 1123.472656 455.875 1122.273438 450.875 1121.304688 446.847656 C 1120.335938 442.777344 1119.171875 437.3125 1118.707031 434.640625 C 1117.429688 427.199219 1116.5 423.984375 1114.210938 419.332031 C 1111.769531 414.335938 1108.359375 409.644531 1104.097656 405.460938 C 1097.277344 398.757812 1090.882812 395.230469 1081.117188 392.75 C 1078.136719 391.976562 1076.546875 391.898438 1064.105469 391.742188 L 1050.351562 391.550781 L 1050.972656 392.480469 C 1051.472656 393.253906 1053.800781 397.363281 1058.875 406.351562 C 1059.765625 407.941406 1061.664062 411.351562 1063.101562 413.90625 C 1066.121094 419.253906 1069.996094 426.308594 1071.933594 429.949219 C 1073.136719 432.277344 1074.144531 433.359375 1074.144531 432.316406 C 1074.144531 432.082031 1074.917969 430.570312 1075.847656 428.90625 C 1076.738281 427.277344 1077.941406 425.105469 1078.484375 424.136719 C 1079.027344 423.167969 1080.578125 420.457031 1081.894531 418.132812 C 1083.25 415.808594 1084.722656 413.210938 1085.226562 412.359375 C 1086.929688 409.335938 1086.929688 409.335938 1088.675781 410.03125 C 1089.488281 410.421875 1091.15625 411.351562 1092.316406 412.164062 C 1093.519531 412.9375 1095.496094 414.179688 1096.734375 414.875 C 1097.976562 415.574219 1099.097656 416.386719 1099.214844 416.660156 C 1099.292969 416.890625 1098.789062 418.054688 1098.054688 419.21875 C 1097.316406 420.339844 1095.457031 423.441406 1093.90625 426.113281 C 1092.355469 428.789062 1090.496094 431.925781 1089.835938 433.089844 C 1089.140625 434.253906 1087.550781 436.964844 1086.351562 439.097656 C 1085.109375 441.226562 1082.164062 446.265625 1079.761719 450.335938 C 1077.359375 454.363281 1075.113281 458.238281 1074.761719 458.9375 C 1073.949219 460.5625 1073.367188 460.875 1072.824219 459.984375 C 1072.207031 458.9375 1070.617188 456.148438 1064.183594 444.714844 C 1047.792969 415.652344 1039.074219 400.152344 1036.207031 394.921875 C 1034.421875 391.703125 1032.058594 387.441406 1030.9375 385.425781 C 1029.8125 383.410156 1026.671875 377.714844 1023.960938 372.832031 C 1021.25 367.910156 1016.984375 360.355469 1014.46875 355.976562 C 1011.988281 351.597656 1009.3125 346.871094 1008.5 345.398438 L 1007.066406 342.800781 L 989.667969 342.800781 L 989.667969 377.289062 L 991.140625 377.328125 C 991.914062 377.367188 997.222656 377.40625 1002.917969 377.445312 C 1008.617188 377.484375 1013.34375 377.597656 1013.421875 377.714844 C 1013.5 377.792969 1014.582031 379.769531 1015.824219 382.132812 C 1017.0625 384.457031 1018.652344 387.402344 1019.386719 388.644531 C 1020.085938 389.882812 1020.667969 391.046875 1020.667969 391.277344 C 1020.667969 391.511719 1015.125 391.625 1005.207031 391.550781 L 989.742188 391.433594 L 989.589844 392.59375 C 989.511719 393.214844 989.511719 399.570312 989.589844 406.625 L 989.707031 419.527344 L 1024.386719 419.527344 L 1025.316406 421.15625 C 1025.820312 422.085938 1027.914062 425.609375 1030.042969 429.019531 C 1034.460938 436.230469 1043.296875 450.839844 1060.191406 479.011719 C 1066.859375 490.09375 1072.902344 500.089844 1073.640625 501.214844 C 1075.226562 503.65625 1074.800781 503.964844 1078.40625 497.609375 C 1079.722656 495.246094 1080.925781 493.152344 1081.117188 492.960938 C 1081.273438 492.726562 1081.972656 491.527344 1082.667969 490.246094 C 1083.832031 488.078125 1087.046875 482.574219 1095.070312 468.933594 C 1096.851562 465.949219 1098.710938 462.734375 1099.214844 461.765625 C 1102.820312 455.253906 1108.050781 446.535156 1108.4375 446.5 C 1108.632812 446.460938 1108.941406 447.273438 1109.097656 448.28125 C 1109.210938 449.328125 1109.679688 451.226562 1110.144531 452.542969 C 1111.382812 456.496094 1113.011719 463.394531 1113.050781 465.097656 C 1113.085938 466.339844 1112.738281 467.191406 1111.304688 469.359375 C 1110.335938 470.832031 1109.097656 472.808594 1108.554688 473.777344 C 1107.703125 475.367188 1100.300781 488.078125 1095.726562 495.867188 C 1092.859375 500.75 1085.496094 513.5 1083.714844 516.597656 C 1082.902344 518.070312 1081.777344 519.929688 1081.3125 520.667969 C 1080.808594 521.402344 1079.800781 523.148438 1079.101562 524.542969 L 1077.785156 527.0625 L 975.910156 527.0625 L 975.792969 427.976562 L 975.714844 328.890625 L 976.761719 328.734375 C 977.382812 328.65625 1007.6875 328.617188 1044.113281 328.617188 C 1109.949219 328.695312 1110.414062 328.695312 1113.863281 329.507812 Z M 989.472656 434.328125 C 989.359375 434.601562 989.359375 436.925781 989.433594 439.484375 C 989.511719 442.039062 989.589844 448.628906 989.628906 454.132812 L 989.667969 464.128906 L 1007.609375 464.011719 C 1017.453125 463.972656 1027.488281 463.820312 1029.851562 463.703125 L 1034.230469 463.507812 L 1025.859375 449.945312 C 1021.25 442.46875 1017.140625 435.800781 1016.714844 435.105469 L 1015.941406 433.863281 L 1002.804688 433.863281 C 992.613281 433.863281 989.589844 433.980469 989.472656 434.328125 Z M 989.628906 477.925781 C 989.589844 478.117188 989.589844 484.667969 989.628906 492.570312 C 989.628906 500.4375 989.667969 508.34375 989.667969 510.085938 L 989.667969 513.304688 L 1026.636719 513.304688 C 1046.980469 513.304688 1063.722656 513.148438 1063.835938 512.992188 C 1063.953125 512.800781 1060.851562 507.453125 1057.015625 501.058594 C 1053.179688 494.703125 1048.492188 486.835938 1046.671875 483.660156 L 1043.300781 477.847656 L 1016.484375 477.730469 C 1001.71875 477.691406 989.628906 477.769531 989.628906 477.925781 Z M 989.628906 477.925781 " fill-opacity="1" fill-rule="nonzero"/></g></svg>