<?xml version="1.0" encoding="UTF-8"?>
<!DOCTYPE svg PUBLIC "-//W3C//DTD SVG 1.1//EN" "http://www.w3.org/Graphics/SVG/1.1/DTD/svg11.dtd">
<!-- Creator: CorelDRAW -->
<svg xmlns="http://www.w3.org/2000/svg" xml:space="preserve" width="6.53783in" height="8.46072in" version="1.1" style="shape-rendering:geometricPrecision; text-rendering:geometricPrecision; image-rendering:optimizeQuality; fill-rule:evenodd; clip-rule:evenodd"
viewBox="0 0 6537.83 8460.72"
 xmlns:xlink="http://www.w3.org/1999/xlink"
 xmlns:xodm="http://www.corel.com/coreldraw/odm/2003">
 <defs>
  <style type="text/css">
   <![CDATA[
    .fil0 {fill:none}
    .fil1 {fill:url(#id0);fill-rule:nonzero}
   ]]>
  </style>
  <linearGradient id="id0" gradientUnits="userSpaceOnUse" x1="4363.63" y1="2420.61" x2="1089.98" y2="6202.25">
   <stop offset="0" style="stop-opacity:1; stop-color:#1B43AD"/>
   <stop offset="0.588235" style="stop-opacity:1; stop-color:#01A79E"/>
   <stop offset="1" style="stop-opacity:1; stop-color:#01A79E"/>
  </linearGradient>
 </defs>
 <g id="Layer_x0020_1">
  <metadata id="CorelCorpID_0Corel-Layer"/>
  <rect class="fil0" x="0" width="6537.83" height="8460.72"/>
  <path class="fil1" d="M4647.87 4793.38c-9.61,84.67 -60.99,240.46 -106.69,325.13 -56.44,104.98 -103.27,169.9 -176.67,245.52 -150.16,155.28 -339.24,253.49 -567.85,294.69 -64.93,11.83 -239.89,18.61 -239.89,9.61 0,-3.98 9.61,-22.59 21.45,-41.82 11.83,-19.74 36.13,-61.5 54.17,-93.09 17.52,-31.63 33.91,-58.72 36.13,-60.43 2.28,-1.14 26,-5.64 51.95,-9.05 52.52,-6.77 172.74,-37.78 219,-55.88 107.26,-42.33 188.51,-96.5 272.09,-180.6 67.71,-68.28 121.88,-142.25 159.72,-218.44 22.02,-44.04 77.33,-201.54 77.33,-220.15 0,-6.2 1.71,-13.54 3.93,-15.25 1.71,-2.28 47.46,-3.93 101.06,-3.93l97.07 0 -2.79 23.67zm-772.18 -1995.35c143.39,33.29 251.15,75.62 342.08,134.34 167.06,107.83 278.81,233.69 371.95,420.55 28.79,57.58 82.96,201.48 77.9,206.03 -2.85,2.22 -118.52,5.07 -163.7,3.93l-42.91 -1.14 -10.69 -26.52c-24.3,-62.65 -76.19,-160.85 -109.54,-207.17 -47.4,-66.01 -125.29,-145.04 -187.37,-188.51 -27.09,-19.17 -81.31,-51.38 -121.37,-70.55 -67.76,-34.43 -96.56,-43.48 -204.32,-66.63 -22.59,-5.07 -200.97,-7.34 -650.82,-8.99l-619.24 -2.28 11.89 21.45c6.77,11.84 27.08,47.97 45.69,80.11 18.61,32.21 41.2,71.13 49.67,87.51 9.05,15.82 52.52,93.72 97.64,172.75l81.31 143.89 191.36 -1.65c199.2,-2.28 332.46,3.92 396.81,18.61 181.74,41.76 329.62,122.5 454.91,248.36 31.07,31.07 73.4,80.74 94.28,110.04 38.92,54.23 95.93,160.35 114.6,211.67 15.76,42.91 14.68,42.33 75.62,40.12 29.93,-1.14 112.32,0 182.87,2.79 122.5,4.55 130.41,4.55 150.72,-6.2 42.33,-21.45 92.01,-11.27 131.5,27.08 38.41,36.7 47.96,83.02 27.08,128.14 -10.69,24.3 -43.98,56.44 -66.57,65.49 -24.87,9.62 -70.55,5.63 -100.48,-8.48 -28.22,-12.97 -29.93,-12.97 -186.86,-10.13l-158.58 2.79 -3.98 33.85c-1.65,18.66 -3.36,42.91 -3.36,54.22 0,18.04 -14.11,77.33 -41.76,178.38 -11.89,41.2 -55.31,133.2 -62.07,130.93 -2.85,-1.14 -10.76,-25.94 -17.53,-55.3 -6.77,-28.79 -24.3,-101.63 -38.41,-160.29 -14.11,-59.29 -31.01,-138.89 -37.78,-177.81 -18.67,-108.39 -32.2,-155.22 -65.49,-222.99 -35.56,-72.77 -85.24,-141.11 -147.31,-202.05 -99.35,-97.64 -192.49,-149.02 -334.74,-185.15 -43.47,-11.27 -66.57,-12.41 -247.8,-14.69l-200.34 -2.79 8.99 13.54c7.33,11.26 41.19,71.12 115.16,202.05 12.97,23.16 40.63,72.83 61.51,110.04 44.04,77.9 100.48,180.66 128.7,233.69 17.52,33.91 32.15,49.68 32.15,34.48 0,-3.41 11.32,-25.43 24.86,-49.67 12.98,-23.72 30.5,-55.36 38.41,-69.47 7.85,-14.11 30.44,-53.6 49.67,-87.45 19.74,-33.86 41.19,-71.7 48.54,-84.1 24.81,-44.04 24.81,-44.04 50.24,-33.91 11.83,5.69 36.07,19.23 53.03,31.07 17.52,11.27 46.26,29.36 64.35,39.49 18.04,10.19 34.43,22.02 36.13,26 1.14,3.36 -6.2,20.31 -16.95,37.28 -10.7,16.33 -37.79,61.5 -60.37,100.43 -22.59,38.98 -49.68,84.67 -59.3,101.62 -10.12,16.96 -33.28,56.44 -50.81,87.51 -18.04,31.01 -60.94,104.41 -95.93,163.7 -35,58.67 -67.77,115.11 -72.83,125.3 -11.83,23.67 -20.31,28.22 -28.22,15.25 -9.05,-15.25 -32.15,-55.88 -125.86,-222.43 -238.76,-423.33 -365.76,-649.11 -407.52,-725.3 -26,-46.89 -60.43,-108.96 -76.81,-138.32 -16.33,-29.36 -62.08,-112.32 -101.57,-183.44 -39.54,-71.69 -101.63,-181.74 -138.32,-245.52 -36.13,-63.78 -75.05,-132.63 -86.89,-154.08l-20.94 -37.84 -253.43 0 0 502.37 21.45 0.57c11.32,0.57 88.65,1.13 171.61,1.7 82.96,0.57 151.81,2.22 152.95,3.93 1.13,1.14 16.95,29.93 34.99,64.35 18.09,33.85 41.26,76.75 51.95,94.85 10.19,18.04 18.61,34.99 18.61,38.35 0,3.41 -80.68,5.06 -225.21,3.98l-225.21 -1.7 -2.28 16.9c-1.08,9.05 -1.08,101.62 0,204.38l1.71 187.94 505.21 0 13.54 23.73c7.34,13.54 37.84,64.86 68.85,114.54 64.35,105.04 193.06,317.84 439.15,728.2 97.07,161.42 185.15,307.03 195.85,323.42 23.16,35.56 16.96,40.06 69.48,-52.52 19.17,-34.42 36.64,-64.92 39.49,-67.7 2.28,-3.42 12.41,-20.89 22.59,-39.55 16.9,-31.58 63.78,-111.75 180.6,-310.44 26,-43.48 53.09,-90.3 60.43,-104.41 52.46,-94.85 128.65,-221.85 134.34,-222.36 2.79,-0.57 7.33,11.26 9.56,25.94 1.7,15.25 8.48,42.9 15.25,62.07 18.09,57.59 41.76,158.07 42.33,182.87 0.57,18.09 -4.49,30.5 -25.38,62.08 -14.11,21.45 -32.2,50.24 -40.06,64.35 -12.46,23.16 -120.29,208.31 -186.86,321.77 -41.77,71.13 -149.02,256.84 -174.96,301.96 -11.89,21.45 -28.22,48.54 -34.99,59.29 -7.34,10.7 -22.02,36.13 -32.21,56.44l-19.17 36.7 -1483.94 0 -1.71 -1443.31 -1.13 -1443.31 15.25 -2.28c9.05,-1.14 450.41,-1.71 981,-1.71 959.04,1.14 965.81,1.14 1016.06,12.97zm-1811.91 1526.84c-1.7,3.98 -1.7,37.84 -0.57,75.11 1.14,37.21 2.28,133.2 2.85,213.37l0.57 145.61 261.34 -1.71c143.33,-0.57 289.57,-2.79 323.99,-4.49l63.79 -2.85 -121.94 -197.56c-67.14,-108.91 -127,-206.03 -133.2,-216.16l-11.26 -18.09 -191.35 0c-148.45,0 -192.49,1.71 -194.2,6.77zm2.28 635.06c-0.57,2.79 -0.57,98.21 0,213.31 0,114.59 0.57,229.76 0.57,255.14l0 46.89 538.5 0c296.33,0 540.15,-2.28 541.85,-4.56 1.71,-2.79 -43.47,-80.68 -99.35,-173.83 -55.88,-92.57 -124.15,-207.17 -150.73,-253.43l-49.1 -84.67 -390.61 -1.7c-215.02,-0.57 -391.13,0.57 -391.13,2.85zm0 0z"/>
 </g>
</svg>
